<?xml version="1.0" standalone="no"?>
<!DOCTYPE svg PUBLIC "-//W3C//DTD SVG 20010904//EN"
 "http://www.w3.org/TR/2001/REC-SVG-20010904/DTD/svg10.dtd">
<svg version="1.0" xmlns="http://www.w3.org/2000/svg"
 width="260.000000pt" height="260.000000pt" viewBox="0 0 260.000000 260.000000"
 preserveAspectRatio="xMidYMid meet">
<metadata>
Created by potrace 1.11, written by Peter Selinger 2001-2013
</metadata>
<g transform="translate(0.000000,260.000000) scale(0.100000,-0.100000)"
fill="#000000" stroke="none">
<path d="M1132 2590 c-371 -52 -704 -261 -911 -570 -98 -146 -158 -291 -197
-470 -26 -119 -26 -381 0 -500 57 -265 172 -477 360 -666 189 -188 401 -303
666 -360 119 -26 381 -26 500 0 265 57 477 172 666 360 188 189 303 401 360
666 26 119 26 381 0 500 -57 265 -172 477 -360 666 -185 184 -390 297 -646
355 -98 22 -340 33 -438 19z m658 -560 l0 -80 80 0 80 0 0 -325 0 -325 -80 0
-80 0 0 -85 0 -85 80 0 80 0 0 -240 0 -240 -80 0 -80 0 0 -85 0 -85 -485 0
-485 0 0 815 0 815 485 0 485 0 0 -80z"/>
<path d="M1140 1620 l0 -160 245 0 245 0 0 160 0 160 -245 0 -245 0 0 -160z"/>
<path d="M1140 970 l0 -160 245 0 245 0 0 160 0 160 -245 0 -245 0 0 -160z"/>
</g>
</svg>
